<svg width="542" height="609" viewBox="0 0 542 609" fill="none" xmlns="http://www.w3.org/2000/svg">
<path d="M538.5 395.15C531.282 435.795 510.523 472.802 479.6 500.15C468.923 509.564 457.371 517.936 445.1 525.15C401.85 551.3 348.25 567.15 292.45 580.15L282.9 582.3C274.606 584.184 266.098 584.957 257.6 584.6C168.85 580.9 108.4 449.35 89.6 310.9C73.2 187.65 100.65 48.05 223.55 41.75C269.7 39.45 323.55 62.45 373.55 99.45C377.15 102.1 380.75 104.85 384.3 107.65V107.65L386.5 109.4C479.85 183.8 556.1 304.45 538.5 395.15Z" fill="#FDE6D6"/>
<path d="M102.9 511.2C109.85 525.25 112.4 543.05 98.45 548.75C82.85 555.15 57.95 544.85 50.75 521.4C46.1 506.4 47.7 485.5 60.75 477.45C71.4 470.55 94.6 494 102.9 511.2Z" fill="#F5F9FD"/>
<path d="M484.6 196.1C478.35 190.65 473.35 182.55 478.65 177.1C483.95 171.65 498.25 171.2 506.65 181.15C512 187.5 515.7 197.9 511.65 204.25C508.05 209.65 492.4 202.75 484.6 196.1Z" fill="#FFAD69"/>
<path fill-rule="evenodd" clip-rule="evenodd" d="M189.6 115.4C186.3 115.05 182.95 114.8 179.6 114.65C179.335 114.726 179.051 114.626 178.891 114.401C178.732 114.176 178.732 113.874 178.891 113.649C179.051 113.424 179.335 113.324 179.6 113.4C182.598 113.4 185.678 113.73 188.69 114.053C188.994 114.085 189.298 114.118 189.6 114.15C189.769 114.162 189.926 114.244 190.03 114.378C190.135 114.511 190.179 114.683 190.15 114.85C190.109 115.135 189.885 115.359 189.6 115.4ZM140.1 119C139.83 118.979 139.596 118.804 139.5 118.55C139.404 118.205 139.605 117.847 139.95 117.75C143.1 116.9 146.4 116.15 149.95 115.5C150.109 115.455 150.28 115.478 150.422 115.563C150.564 115.648 150.665 115.788 150.7 115.95C150.762 116.294 150.541 116.625 150.2 116.7C146.9 117.35 143.65 118.1 140.5 118.95L140.1 119ZM219.2 121C222.4 121.85 225.6 122.75 228.8 123.75H229.25C229.581 123.75 229.85 123.481 229.85 123.15C229.85 122.819 229.581 122.55 229.25 122.55C226 121.5 222.75 120.6 219.6 119.75C219.421 119.689 219.224 119.709 219.06 119.805C218.897 119.901 218.784 120.063 218.75 120.25C218.706 120.574 218.893 120.886 219.2 121ZM121.25 125.8C121.02 125.781 120.815 125.65 120.7 125.45C120.555 125.132 120.688 124.757 121 124.6C124 123.25 127.1 121.95 130.3 120.8C130.452 120.735 130.624 120.736 130.776 120.802C130.927 120.869 131.044 120.994 131.1 121.15C131.207 121.467 131.055 121.813 130.75 121.95C127.6 123.1 124.5 124.4 121.55 125.75L121.25 125.8ZM238.35 126.9C241.45 128 244.6 129.2 247.7 130.4L248.15 130.45C248.481 130.45 248.75 130.181 248.75 129.85C248.75 129.519 248.481 129.25 248.15 129.25C245.05 128.05 241.9 126.85 238.75 125.75C238.434 125.666 238.102 125.811 237.95 126.1C237.85 126.431 238.025 126.782 238.35 126.9ZM103.95 135.8C103.75 135.814 103.559 135.718 103.45 135.55C103.337 135.437 103.274 135.284 103.274 135.125C103.274 134.965 103.337 134.813 103.45 134.7C106.2 132.75 109 130.9 111.9 129.25C112.194 129.143 112.522 129.261 112.681 129.53C112.84 129.8 112.785 130.144 112.55 130.35C109.7 132 106.85 133.8 104.2 135.7C104.14 135.746 104.072 135.779 104 135.8H103.95ZM265.8 138.35H266.1H266.15C266.357 138.343 266.546 138.23 266.65 138.05C266.717 137.904 266.724 137.738 266.667 137.587C266.611 137.437 266.497 137.315 266.35 137.25C263.35 135.8 260.3 134.45 257.2 133.1C257.054 133.033 256.888 133.026 256.737 133.083C256.587 133.139 256.465 133.253 256.4 133.4C256.255 133.718 256.388 134.093 256.7 134.25C259.75 135.55 262.85 136.95 265.8 138.35ZM88.9207 148.909C88.7995 148.945 88.6697 148.942 88.55 148.9C88.437 148.787 88.3735 148.634 88.3735 148.475C88.3735 148.315 88.437 148.163 88.55 148.05C90.9 145.6 93.55 143.05 95.85 141.1C96.1015 140.859 96.4985 140.859 96.75 141.1C96.9913 141.351 96.9913 141.748 96.75 142C94.3 144.15 91.75 146.45 89.55 148.85C89.3642 148.978 89.1261 149 88.9207 148.909ZM301.4 157.4H301.1C298.3 155.65 295.4 153.95 292.5 152.4C292.312 152.284 292.201 152.077 292.208 151.856C292.215 151.636 292.339 151.435 292.533 151.331C292.727 151.227 292.962 151.234 293.15 151.35C294.666 152.212 296.181 153.102 297.683 153.983L297.683 153.983L297.683 153.984L297.683 153.984L297.683 153.984L297.684 153.984L297.685 153.985L297.688 153.986L297.693 153.989C299.061 154.792 300.417 155.588 301.75 156.35C301.863 156.463 301.926 156.615 301.926 156.775C301.926 156.934 301.863 157.087 301.75 157.2C301.663 157.309 301.538 157.38 301.4 157.4ZM76.1 164.5H76.45C76.6519 164.59 76.8883 164.551 77.05 164.4C78.6799 161.757 80.4261 159.541 82.1863 157.307L82.1863 157.307C82.424 157.005 82.662 156.703 82.9 156.4C83.0292 156.286 83.1031 156.122 83.1031 155.95C83.1031 155.778 83.0292 155.614 82.9 155.5C82.7874 155.387 82.6345 155.324 82.475 155.324C82.3155 155.324 82.1626 155.387 82.05 155.5C80 158.1 78 160.8 76.1 163.65C75.987 163.763 75.9235 163.915 75.9235 164.075C75.9235 164.234 75.987 164.387 76.1 164.5ZM318.25 168.25C318.14 168.304 318.01 168.304 317.9 168.25L309.6 162.65C309.31 162.47 309.221 162.09 309.4 161.8C309.579 161.51 309.96 161.42 310.25 161.6C313.083 163.4 315.883 165.25 318.65 167.15C318.861 167.394 318.861 167.756 318.65 168C318.567 168.145 318.417 168.239 318.25 168.25ZM66.65 181.75C66.4899 181.686 66.3651 181.556 66.3077 181.393C66.2503 181.23 66.2657 181.051 66.35 180.9C67.75 177.85 69.3 174.85 70.9 171.95C70.9625 171.683 71.1862 171.483 71.4589 171.452C71.7316 171.421 71.9946 171.564 72.116 171.811C72.2373 172.057 72.1909 172.353 72 172.55C70.4 175.4 68.9 178.4 67.45 181.45C67.3846 181.597 67.2631 181.711 67.1128 181.767C66.9624 181.824 66.7957 181.817 66.65 181.75ZM349.9 192.25C350.029 192.3 350.171 192.3 350.3 192.25C350.44 192.258 350.58 192.223 350.7 192.15C350.813 192.037 350.876 191.884 350.876 191.725C350.876 191.565 350.813 191.413 350.7 191.3C348.901 189.918 347.246 188.558 345.617 187.217L345.616 187.217L345.612 187.214C344.707 186.469 343.81 185.732 342.9 185C342.623 184.848 342.277 184.917 342.08 185.164C341.882 185.41 341.891 185.763 342.1 186C344.033 187.381 345.776 188.833 347.525 190.292C348.31 190.945 349.095 191.6 349.9 192.25ZM59.6 200.6C59.2915 200.464 59.1234 200.128 59.2 199.8C60.25 196.55 61.35 193.35 62.55 190.3C62.7023 190.011 63.0343 189.866 63.35 189.95C63.5056 190.006 63.6314 190.123 63.6977 190.274C63.7639 190.426 63.7648 190.598 63.7 190.75C62.55 193.75 61.45 196.95 60.4 200.15C60.3029 200.495 59.9451 200.696 59.6 200.6ZM365.549 205.332C365.482 205.331 365.415 205.321 365.35 205.3C362.9 203.05 360.35 200.85 357.8 198.7C357.582 198.44 357.582 198.06 357.8 197.8C358.051 197.559 358.449 197.559 358.7 197.8L366.25 204.4C366.468 204.66 366.468 205.04 366.25 205.3C366.041 205.447 365.767 205.458 365.549 205.332ZM54.1803 219.738C54.2761 219.882 54.429 219.977 54.6 220C54.7899 220.015 54.977 219.946 55.1117 219.812C55.2465 219.677 55.3153 219.49 55.3 219.3C56 216.05 56.75 212.75 57.6 209.55C57.6658 209.221 57.4709 208.897 57.15 208.8C56.9843 208.738 56.7996 208.752 56.6453 208.839C56.4911 208.926 56.383 209.076 56.35 209.25C56.1881 209.948 56.0262 210.64 55.8655 211.327L55.8655 211.327L55.8654 211.327L55.8654 211.328L55.8654 211.328C55.2322 214.034 54.6184 216.658 54.1 219.25C54.0553 219.417 54.0846 219.595 54.1803 219.738ZM394.15 233.4C394.007 233.464 393.843 233.464 393.7 233.4C391.45 230.95 389.1 228.4 386.8 226.15C386.559 225.898 386.559 225.501 386.8 225.25C387.06 225.032 387.44 225.032 387.7 225.25C388.693 226.286 389.694 227.359 390.693 228.429L390.694 228.429C392.01 229.839 393.321 231.243 394.6 232.55C394.841 232.801 394.841 233.198 394.6 233.45C394.448 233.477 394.292 233.46 394.15 233.4ZM50.65 239.05C50.6197 239.392 50.8606 239.699 51.2 239.75C51.526 239.784 51.8261 239.569 51.9 239.25C52.3 235.8 52.75 232.45 53.25 229.25C53.2959 229.089 53.266 228.916 53.1686 228.78C53.0713 228.643 52.9172 228.559 52.75 228.55C52.5906 228.521 52.4263 228.558 52.2944 228.652C52.1626 228.746 52.0744 228.89 52.05 229.05C51.5 232.35 51.05 235.7 50.65 239.05ZM407.45 248.4C407.29 248.467 407.11 248.467 406.95 248.4L400.4 240.8C400.287 240.687 400.224 240.534 400.224 240.375C400.224 240.215 400.287 240.063 400.4 239.95C400.514 239.821 400.678 239.747 400.85 239.747C401.022 239.747 401.186 239.821 401.3 239.95C402.89 241.724 404.507 243.608 406.131 245.5C406.703 246.167 407.277 246.835 407.85 247.5C408.091 247.751 408.091 248.148 407.85 248.4C407.721 248.45 407.579 248.45 407.45 248.4ZM49.157 259.507C49.2711 259.631 49.4318 259.701 49.6 259.7C49.9233 259.704 50.2003 259.469 50.25 259.15C50.3105 257.799 50.4198 256.44 50.5287 255.086C50.6898 253.082 50.85 251.089 50.85 249.15C50.8536 248.799 50.5971 248.5 50.25 248.45C50.0824 248.436 49.9166 248.493 49.793 248.607C49.6695 248.721 49.5994 248.882 49.6 249.05C49.5462 249.76 49.4879 250.472 49.4293 251.186C49.2157 253.791 49 256.42 49 259.05C48.986 259.218 49.043 259.383 49.157 259.507ZM420.15 264.05C419.991 264.123 419.809 264.123 419.65 264.05C417.6 261.35 415.55 258.7 413.5 256.15C413.387 256.037 413.324 255.884 413.324 255.725C413.324 255.565 413.387 255.413 413.5 255.3C413.614 255.171 413.778 255.097 413.95 255.097C414.122 255.097 414.286 255.171 414.4 255.3C415.009 256.076 415.627 256.843 416.249 257.616L416.25 257.617C417.674 259.383 419.124 261.183 420.55 263.2C420.791 263.451 420.791 263.848 420.55 264.1L420.15 264.05ZM49 279.15C49 279.481 49.2686 279.75 49.6 279.75H49.65C49.8182 279.751 49.9789 279.681 50.093 279.557C50.2071 279.433 50.264 279.268 50.25 279.1V272.1V269.1C50.2506 268.932 50.1806 268.771 50.057 268.657C49.9334 268.543 49.7676 268.486 49.6 268.5C49.2686 268.5 49 268.769 49 269.1V272.1V279.15ZM431.6 280.35C431.422 280.415 431.228 280.415 431.05 280.35C429.25 277.65 427.35 274.9 425.4 272.1C425.287 271.987 425.224 271.834 425.224 271.675C425.224 271.515 425.287 271.363 425.4 271.25C425.651 271.009 426.049 271.009 426.3 271.25C428.3 274 430.2 276.8 432 279.5C432.211 279.744 432.211 280.106 432 280.35C431.872 280.406 431.728 280.406 431.6 280.35ZM441.7 297.05C441.796 297.237 441.99 297.354 442.2 297.35L442.55 297.05C442.663 296.937 442.726 296.784 442.726 296.625C442.726 296.465 442.663 296.313 442.55 296.2C441.1 293.35 439.35 290.5 437.55 287.6C437.306 287.389 436.944 287.389 436.7 287.6C436.482 287.86 436.482 288.24 436.7 288.5C437.66 290.21 438.674 291.92 439.688 293.63C440.364 294.77 441.04 295.91 441.7 297.05ZM50.4 299.75C50.0872 299.751 49.8261 299.512 49.8 299.2C49.8 297.158 49.6196 295.115 49.443 293.116C49.3256 291.787 49.2099 290.478 49.15 289.2C49.149 288.86 49.4107 288.576 49.75 288.55C49.9176 288.536 50.0834 288.593 50.207 288.707C50.3306 288.821 50.4006 288.982 50.4 289.15C50.4 291.481 50.6058 293.863 50.8144 296.279C50.8966 297.231 50.9793 298.188 51.05 299.15C51.064 299.318 51.0071 299.483 50.893 299.607C50.7789 299.731 50.6182 299.801 50.45 299.8L50.4 299.75ZM451.1 314.65C451.231 314.858 451.455 314.989 451.7 315V314.95C452.012 314.793 452.145 314.418 452 314.1C450.55 311.15 449 308.15 447.4 305.15C447.226 304.857 446.855 304.747 446.55 304.9C446.339 305.144 446.339 305.506 446.55 305.75C448.15 308.75 449.7 311.75 451.1 314.65ZM52.5 319.7C52.1767 319.704 51.8997 319.469 51.85 319.15C51.45 315.85 51.05 312.5 50.7 309.15C50.6713 308.983 50.7148 308.811 50.8196 308.678C50.9244 308.544 51.0808 308.462 51.25 308.45C51.592 308.42 51.8985 308.661 51.95 309C52.3 312.3 52.7 315.65 53.1 319C53.1287 319.167 53.0852 319.339 52.9804 319.472C52.8756 319.605 52.7193 319.688 52.55 319.7H52.5ZM459 332.95C459.101 333.192 459.338 333.35 459.6 333.35L459.8 333.3C459.956 333.244 460.081 333.127 460.148 332.976C460.214 332.824 460.215 332.652 460.15 332.5C459 329.4 457.7 326.3 456.35 323.2C456.193 322.888 455.818 322.755 455.5 322.9C455.353 322.965 455.239 323.087 455.183 323.237C455.126 323.388 455.133 323.554 455.2 323.7C456.55 326.8 457.8 329.9 459 332.95ZM55.5 339.5C55.2041 339.504 54.9493 339.292 54.9 339C54.3 335.7 53.75 332.35 53.25 329C53.2213 328.827 53.2636 328.65 53.3671 328.509C53.4706 328.368 53.6267 328.275 53.8 328.25C54.142 328.22 54.4485 328.461 54.5 328.8C54.8771 331.289 55.2827 333.778 55.6952 336.31C55.8297 337.135 55.9648 337.964 56.1 338.8C56.1619 339.144 55.9411 339.475 55.6 339.55L55.5 339.5ZM465.7 351.85C465.749 352.142 466.004 352.354 466.3 352.35L466.45 352.3C466.612 352.265 466.752 352.164 466.837 352.022C466.922 351.88 466.945 351.709 466.9 351.55C466 348.4 465 345.15 463.95 341.95C463.905 341.785 463.792 341.647 463.639 341.571C463.487 341.495 463.309 341.487 463.15 341.55C462.985 341.595 462.847 341.708 462.771 341.861C462.695 342.013 462.687 342.191 462.75 342.35C463.8 345.5 464.8 348.75 465.7 351.85ZM59.6 359.15C59.3041 359.154 59.0493 358.942 59 358.65C58.25 355.35 57.55 352.05 56.95 348.65C56.9053 348.483 56.9346 348.305 57.0303 348.162C57.1261 348.018 57.279 347.923 57.45 347.9C57.6094 347.871 57.7738 347.908 57.9056 348.002C58.0374 348.096 58.1256 348.24 58.15 348.4C58.419 349.724 58.6965 351.065 58.9791 352.431L58.9803 352.437L58.9807 352.439L58.9807 352.439C59.3805 354.371 59.7902 356.351 60.2 358.4C60.2452 358.559 60.2225 358.73 60.1373 358.872C60.052 359.014 59.9119 359.115 59.75 359.15H59.6ZM469.7 371.25C469.771 371.55 470.042 371.758 470.35 371.75L470.45 371.7C470.61 371.676 470.754 371.587 470.848 371.456C470.942 371.324 470.979 371.159 470.95 371C470.45 367.6 469.85 364.3 469.1 361C469.025 360.659 468.694 360.438 468.35 360.5C468.029 360.597 467.834 360.921 467.9 361.25C468.6 364.75 469.2 368.05 469.7 371.25ZM64.3 379.1C64.0194 379.109 63.7701 378.922 63.7 378.65V378.15C62.85 374.9 62 371.65 61.2 368.15C61.1621 367.812 61.3731 367.495 61.7 367.4C62.0245 367.356 62.336 367.543 62.45 367.85L62.4502 367.851L62.4506 367.853C63.2504 371.102 64.0502 374.351 64.9 377.55V378.05C64.9961 378.395 64.7948 378.753 64.45 378.85L64.3 379.1ZM471.45 391.15C471.45 391.481 471.719 391.75 472.05 391.75L472.1 391.7C472.439 391.674 472.701 391.39 472.7 391.05C472.677 389.499 472.565 387.925 472.453 386.35L472.453 386.349C472.326 384.574 472.2 382.798 472.2 381.05C472.187 380.877 472.106 380.717 471.975 380.604C471.843 380.492 471.673 380.436 471.5 380.45C471.331 380.462 471.174 380.544 471.07 380.678C470.965 380.811 470.921 380.983 470.95 381.15C471.2 384.5 471.45 387.85 471.45 391.15ZM69.6 398.35C69.3376 398.35 69.1009 398.192 69 397.95C68.05 394.75 67.1 391.5 66.2 388.3C66.1548 388.141 66.1775 387.97 66.2628 387.828C66.348 387.686 66.4881 387.585 66.65 387.55C66.8025 387.503 66.9673 387.519 67.1081 387.594C67.2488 387.669 67.3538 387.797 67.4 387.95C68.3 391.2 69.25 394.4 70.2 397.55C70.3005 397.881 70.1248 398.232 69.8 398.35H69.6ZM470.371 411.605C470.478 411.731 470.635 411.803 470.8 411.8L471 411.75C471.265 411.689 471.465 411.47 471.5 411.2C471.575 410.502 471.657 409.8 471.74 409.093C472.042 406.509 472.35 403.87 472.35 401.2C472.33 400.868 472.079 400.597 471.75 400.55C471.582 400.536 471.417 400.593 471.293 400.707C471.169 400.821 471.099 400.982 471.1 401.15C470.9 404.55 470.6 407.9 470.25 411.15C470.22 411.312 470.264 411.479 470.371 411.605ZM75.8 417.45C75.5298 417.429 75.296 417.254 75.2 417C74.15 413.85 73.1 410.7 72.1 407.5C72.0733 407.2 72.2562 406.921 72.5419 406.826C72.8276 406.73 73.1414 406.844 73.3 407.1C74.3 410.3 75.35 413.45 76.4 416.6C76.4629 416.759 76.4553 416.937 76.3789 417.089C76.3025 417.242 76.1647 417.355 76 417.4L75.8 417.45ZM466.95 430.55C466.888 430.894 467.109 431.225 467.45 431.3L467.75 431.75C467.957 431.698 468.129 431.553 468.216 431.359C468.304 431.164 468.298 430.94 468.2 430.75C468.9 427.3 469.55 424 470.05 420.75C470.079 420.591 470.042 420.426 469.948 420.294C469.854 420.163 469.71 420.074 469.55 420.05C469.206 419.988 468.875 420.209 468.8 420.55C468.3 423.95 467.65 427.25 466.95 430.55ZM82.2 436.3C81.9376 436.3 81.7009 436.142 81.6 435.9C80.45 432.8 79.3 429.65 78.2 426.5C78.0758 426.182 78.2325 425.824 78.55 425.7C78.8676 425.576 79.2257 425.732 79.35 426.05C79.7333 427.1 80.111 428.15 80.4887 429.199C81.2443 431.3 82 433.4 82.8 435.5C82.9005 435.831 82.7248 436.182 82.4 436.3H82.2ZM461.8 449.95C461.7 450.281 461.875 450.632 462.2 450.75H462.4C462.662 450.75 462.899 450.592 463 450.35C464.05 447.2 465.05 443.95 465.95 440.75C466.033 440.419 465.831 440.083 465.5 440C465.169 439.917 464.833 440.119 464.75 440.45C463.85 443.6 462.9 446.8 461.8 449.95ZM89.6 454.95C89.3598 454.966 89.137 454.824 89.05 454.6C87.75 451.5 86.5 448.4 85.3 445.3C85.2178 445.143 85.2093 444.957 85.2768 444.793C85.3444 444.629 85.481 444.504 85.65 444.45C85.9806 444.349 86.3321 444.525 86.45 444.85C87.65 447.95 88.9 451.05 90.2 454.1C90.3118 454.431 90.1624 454.794 89.85 454.95H89.6ZM454.3 468.4C454.155 468.718 454.288 469.093 454.6 469.25C454.918 469.395 455.293 469.262 455.45 468.95C456.9 466 458.25 462.9 459.55 459.8C459.656 459.483 459.505 459.137 459.2 459C459.054 458.933 458.888 458.926 458.737 458.983C458.587 459.039 458.465 459.153 458.4 459.3C457.1 462.4 455.75 465.45 454.3 468.4ZM97.7 473.35C97.4638 473.352 97.2484 473.215 97.15 473C95.75 469.95 94.4 466.9 93.05 463.8C92.9826 463.654 92.9763 463.488 93.0327 463.337C93.0891 463.187 93.2034 463.065 93.35 463C93.5072 462.918 93.6926 462.909 93.8566 462.977C94.0206 463.044 94.1463 463.181 94.2 463.35C95.2204 465.744 96.3023 468.138 97.3734 470.508C97.6669 471.157 97.9596 471.805 98.25 472.45C98.3946 472.768 98.2621 473.143 97.95 473.3L97.7 473.35ZM444.55 486.7H444.85L444.95 486.75C445.212 486.808 445.484 486.711 445.65 486.5C446.414 485.164 447.211 483.804 448.016 482.433L448.019 482.429C448.899 480.929 449.788 479.414 450.65 477.9C450.841 477.703 450.887 477.407 450.766 477.161C450.645 476.914 450.382 476.771 450.109 476.802C449.836 476.833 449.612 477.033 449.55 477.3C448.05 480.2 446.35 483.05 444.55 485.85C444.437 485.963 444.374 486.116 444.374 486.275C444.374 486.434 444.437 486.587 444.55 486.7ZM106.4 491.4C106.164 491.402 105.948 491.265 105.85 491.05C104.3 488.05 102.8 485 101.4 482.05C101.333 481.904 101.326 481.738 101.383 481.587C101.439 481.437 101.553 481.315 101.7 481.25C101.928 481.046 102.272 481.046 102.5 481.25L106.95 490.25C107.103 490.555 106.993 490.926 106.7 491.1L106.4 491.4ZM432.7 502.85H433.1H433.2C433.298 502.878 433.402 502.878 433.5 502.85C435.65 500.25 437.7 497.55 439.65 494.9C439.763 494.787 439.826 494.634 439.826 494.475C439.826 494.315 439.763 494.163 439.65 494.05C439.537 493.937 439.384 493.874 439.225 493.874C439.066 493.874 438.913 493.937 438.8 494.05C437.205 496.421 435.544 498.458 433.843 500.544L433.843 500.544C433.464 501.009 433.083 501.476 432.7 501.95C432.459 502.201 432.459 502.598 432.7 502.85ZM115.9 509.05C115.677 509.051 115.47 508.938 115.35 508.75L114.973 508.079C113.491 505.438 111.963 502.715 110.35 499.95C110.283 499.665 110.415 499.371 110.672 499.231C110.928 499.091 111.247 499.14 111.45 499.35C113.05 502.35 114.7 505.3 116.45 508.1C116.661 508.344 116.661 508.706 116.45 508.95L115.9 509.05ZM419.2 517.65C419.326 517.712 419.474 517.712 419.6 517.65C419.717 517.729 419.859 517.765 420 517.75C422.202 515.686 424.362 513.327 426.402 511.098L426.404 511.096L426.405 511.095L426.405 511.095C426.588 510.895 426.769 510.697 426.95 510.5C427.191 510.248 427.191 509.851 426.95 509.6C426.837 509.487 426.685 509.423 426.525 509.423C426.366 509.423 426.213 509.487 426.1 509.6C424.898 510.802 423.651 512.124 422.383 513.467L422.382 513.469C421.33 514.583 420.265 515.712 419.2 516.8C419.073 516.904 418.999 517.06 418.999 517.225C418.999 517.39 419.073 517.546 419.2 517.65ZM126.2 526.15C125.98 526.142 125.776 526.031 125.65 525.85C123.9 523.1 122.1 520.2 120.35 517.35C120.139 517.106 120.139 516.744 120.35 516.5C120.463 516.387 120.616 516.324 120.775 516.324C120.935 516.324 121.087 516.387 121.2 516.5C122.632 518.9 124.134 521.301 125.618 523.671L125.619 523.673C125.897 524.116 126.174 524.559 126.45 525C126.661 525.244 126.661 525.606 126.45 525.85L126.2 526.15ZM404.25 530.9C404.375 531.049 404.556 531.14 404.75 531.15L404.9 531.1C404.958 531.059 405.009 531.008 405.05 530.95L412.65 524.4C412.891 524.148 412.891 523.751 412.65 523.5C412.537 523.387 412.385 523.324 412.225 523.324C412.066 523.324 411.913 523.387 411.8 523.5C410.809 524.355 409.834 525.209 408.862 526.061L408.858 526.065L408.857 526.065L408.856 526.066L408.855 526.067L408.854 526.068L408.853 526.068L408.853 526.069L408.852 526.07L408.851 526.07L408.85 526.071L408.849 526.072L408.849 526.073L408.848 526.073L408.847 526.074C407.322 527.41 405.804 528.74 404.25 530.05C404.137 530.163 404.074 530.315 404.074 530.475C404.074 530.634 404.137 530.787 404.25 530.9ZM137.5 542.8C137.293 542.793 137.104 542.68 137 542.5C135.05 539.9 133.1 537.15 131.2 534.35C130.982 534.09 130.982 533.71 131.2 533.45C131.451 533.209 131.849 533.209 132.1 533.45C134 536.2 135.95 538.95 137.85 541.6C137.963 541.713 138.026 541.865 138.026 542.025C138.026 542.184 137.963 542.337 137.85 542.45C137.813 542.567 137.744 542.671 137.65 542.75L137.5 542.8ZM388.35 543.3C388.509 543.373 388.691 543.373 388.85 543.3L389 543.25C389.031 543.266 389.063 543.279 389.096 543.288C389.114 543.293 389.132 543.297 389.15 543.3C391.95 541.35 394.65 539.35 397.25 537.35C397.363 537.237 397.427 537.084 397.427 536.925C397.427 536.766 397.363 536.613 397.25 536.5C397.137 536.387 396.985 536.324 396.825 536.324C396.666 536.324 396.513 536.387 396.4 536.5C394.064 538.297 391.647 540.053 389.186 541.842L389.179 541.847L389.175 541.85L388.35 542.45C388.237 542.563 388.174 542.715 388.174 542.875C388.174 543.034 388.237 543.187 388.35 543.3ZM372.1 554.35C371.89 554.354 371.696 554.237 371.6 554.05C371.487 553.937 371.424 553.784 371.424 553.625C371.424 553.465 371.487 553.313 371.6 553.2C374.5 551.4 377.35 549.6 380.05 547.8C380.163 547.687 380.316 547.624 380.475 547.624C380.635 547.624 380.787 547.687 380.9 547.8C381.013 547.913 381.077 548.065 381.077 548.225C381.077 548.384 381.013 548.537 380.9 548.65C378.2 550.45 375.35 552.25 372.45 554.05L372.1 554.35ZM149.45 558.5C149.611 558.562 149.789 558.562 149.95 558.5L150.4 558.6C150.641 558.349 150.641 557.951 150.4 557.7C149.282 556.262 148.149 554.924 147.018 553.586L147.017 553.585L147.016 553.585L147.016 553.584L147.015 553.583L147.015 553.582L147.014 553.582L147.013 553.581L147.013 553.58L147.012 553.579L147.012 553.579L147.011 553.578L147.01 553.577L147.01 553.577L147.009 553.576L147.009 553.575L147.008 553.574L147.007 553.574L147.007 553.573L147.006 553.572L147.006 553.571L147.005 553.571L147.005 553.57L147.004 553.569L147.003 553.568L147.003 553.568L147.002 553.567L147.002 553.566L147.001 553.566L147 553.565L147 553.564L146.999 553.563L146.999 553.563L146.998 553.562L146.997 553.561L146.997 553.56L146.996 553.56L146.996 553.559L146.995 553.558L146.993 553.556C146.008 552.392 145.024 551.229 144.05 550C143.843 549.738 143.462 549.693 143.2 549.9C142.938 550.107 142.893 550.488 143.1 550.75C145.2 553.5 147.3 556.05 149.45 558.5ZM354.95 564.4C354.72 564.381 354.514 564.25 354.4 564.05C354.247 563.745 354.357 563.374 354.65 563.2C357.6 561.6 360.55 559.95 363.35 558.2C363.594 557.989 363.956 557.989 364.2 558.2C364.313 558.313 364.376 558.465 364.376 558.625C364.376 558.784 364.313 558.937 364.2 559.05L355.45 564.05L354.95 564.4ZM163.35 573.1C163.479 573.15 163.621 573.15 163.75 573.1V573.05C163.892 573.121 164.058 573.121 164.2 573.05C164.327 572.945 164.401 572.79 164.401 572.625C164.401 572.46 164.327 572.304 164.2 572.2C161.904 570.054 159.557 567.557 157.211 565.061L157.211 565.061L157.211 565.061L157.211 565.061L157.21 565.06L157.21 565.06L157.21 565.06L157.21 565.06L157.21 565.06L157.21 565.06L157.209 565.059L157.209 565.059L157.209 565.059L157.209 565.059L157.209 565.059L157.208 565.058L157.208 565.058L157.208 565.058L157.208 565.058L157.208 565.058L157.208 565.057L157.207 565.057L157.207 565.057L157.207 565.057L157.207 565.057L157.207 565.057L157.206 565.056L157.206 565.056L157.206 565.056L157.206 565.056L157.206 565.056L157.206 565.055L157.205 565.055L157.205 565.055L157.205 565.055L157.205 565.055L157.205 565.055L157.204 565.054L157.204 565.054L157.204 565.054L157.204 565.054L157.204 565.054L157.203 565.053L157.203 565.053L157.203 565.053L157.203 565.053L157.203 565.053L157.203 565.053L157.202 565.052L157.202 565.052L157.202 565.052L157.202 565.052L157.202 565.052L157.201 565.051L157.201 565.051L157.201 565.051L157.201 565.051L157.201 565.051L157.201 565.051L157.2 565.05L157.2 565.05L157.2 565.05C156.949 564.809 156.552 564.809 156.3 565.05C156.173 565.154 156.099 565.31 156.099 565.475C156.099 565.64 156.173 565.796 156.3 565.9C158.667 568.4 161.017 570.8 163.35 573.1ZM337.15 573.6C336.914 573.602 336.698 573.465 336.6 573.25C336.516 573.099 336.5 572.92 336.558 572.757C336.615 572.594 336.74 572.464 336.9 572.4L345.8 567.9C345.997 567.709 346.293 567.663 346.539 567.784C346.786 567.905 346.929 568.168 346.898 568.441C346.867 568.714 346.667 568.937 346.4 569C343.4 570.55 340.45 572.05 337.4 573.5L337.15 573.6ZM318.45 581.7C318.533 581.934 318.752 582.093 319 582.1L319.25 582.05L328.35 577.85C328.621 577.811 328.839 577.606 328.894 577.337C328.949 577.069 328.83 576.795 328.596 576.652C328.362 576.509 328.064 576.528 327.85 576.7C325.72 577.729 323.566 578.708 321.404 579.69L321.399 579.692L321.396 579.694C320.515 580.094 319.632 580.495 318.75 580.9C318.603 580.965 318.489 581.087 318.433 581.237C318.376 581.388 318.383 581.554 318.45 581.7ZM179 586.2C178.886 586.238 178.764 586.238 178.65 586.2C177.106 585.012 175.633 583.79 174.105 582.521C173.059 581.653 171.988 580.764 170.85 579.85C170.588 579.629 170.554 579.237 170.775 578.975C170.996 578.713 171.388 578.679 171.65 578.9C171.832 579.057 172.014 579.214 172.195 579.37L172.21 579.383C174.561 581.414 176.852 583.393 179.4 585.2C179.529 585.314 179.603 585.478 179.603 585.65C179.603 585.822 179.529 585.986 179.4 586.1C179.249 586.189 179.066 586.207 178.9 586.15L179 586.2ZM300.15 589.65C300.237 589.874 300.46 590.016 300.7 590L300.95 589.95C304.05 588.7 307.1 587.4 310.2 586.05C310.347 585.985 310.461 585.863 310.517 585.713C310.574 585.562 310.567 585.396 310.5 585.25C310.348 584.961 310.016 584.816 309.7 584.9C306.65 586.25 303.55 587.55 300.45 588.8C300.138 588.957 300.005 589.332 300.15 589.65ZM195.7 597.05H195.4C192.766 595.642 190.132 594.069 187.535 592.518L187.533 592.518C187.272 592.361 187.011 592.205 186.75 592.05C186.539 591.806 186.539 591.444 186.75 591.2C186.863 591.087 187.016 591.023 187.175 591.023C187.335 591.023 187.487 591.087 187.6 591.2C190.4 593.05 193.3 594.75 196.15 596.2C196.361 596.444 196.361 596.806 196.15 597.05C195.999 597.088 195.839 597.07 195.7 597V597.05ZM281.5 597.1C281.583 597.334 281.802 597.493 282.05 597.5L282.3 597.45L291.6 593.75C291.905 593.613 292.057 593.267 291.95 592.95C291.813 592.645 291.467 592.493 291.15 592.6L281.85 596.3C281.684 596.341 281.546 596.457 281.478 596.614C281.409 596.77 281.417 596.95 281.5 597.1ZM263.35 604.55C263.069 604.559 262.82 604.372 262.75 604.1C262.65 603.769 262.825 603.418 263.15 603.3C264.586 602.854 266.072 602.309 267.558 601.763L267.559 601.763L267.56 601.763L267.56 601.762L267.561 601.762L267.561 601.762L267.562 601.762L267.563 601.762L267.563 601.761L267.564 601.761L267.564 601.761L267.565 601.761L267.566 601.761L267.566 601.76L267.567 601.76L267.567 601.76L267.568 601.76L267.569 601.76L267.569 601.76L267.57 601.759L267.57 601.759L267.571 601.759L267.572 601.759L267.572 601.759L267.573 601.758L267.573 601.758L267.574 601.758L267.575 601.758L267.575 601.758L267.576 601.758L267.576 601.757L267.577 601.757L267.577 601.757L267.578 601.757L267.579 601.757L267.579 601.756L267.58 601.756L267.58 601.756L267.581 601.756L267.582 601.756L267.582 601.756L267.583 601.755L267.583 601.755L267.584 601.755L267.585 601.755L267.585 601.755L267.586 601.754L267.586 601.754L267.587 601.754L267.588 601.754L267.588 601.754L267.589 601.754L267.589 601.753L267.59 601.753L267.591 601.753L267.591 601.753L267.592 601.753L267.592 601.752L267.593 601.752L267.594 601.752L267.594 601.752L267.595 601.752L267.595 601.752L267.596 601.751L267.597 601.751L267.597 601.751L267.598 601.751L267.598 601.751L267.6 601.75L272.6 599.9C272.752 599.835 272.924 599.836 273.076 599.902C273.227 599.969 273.344 600.094 273.4 600.25C273.483 600.4 273.491 600.58 273.422 600.736C273.354 600.893 273.216 601.009 273.05 601.05L268.05 602.95C266.55 603.5 265 604.05 263.5 604.5L263.35 604.55ZM204.65 601.4C207.736 602.718 210.891 603.869 214.1 604.85V604.8C214.416 604.884 214.748 604.739 214.9 604.45C214.996 604.105 214.795 603.747 214.45 603.65C211.291 602.686 208.186 601.551 205.15 600.25C204.819 600.138 204.456 600.288 204.3 600.6C204.194 600.917 204.345 601.263 204.65 601.4ZM243.7 608.35C243.369 608.35 243.1 608.081 243.1 607.75C243.07 607.588 243.114 607.421 243.221 607.295C243.328 607.169 243.485 607.097 243.65 607.1C247.007 606.873 250.347 606.439 253.65 605.8C253.994 605.738 254.325 605.959 254.4 606.3C254.429 606.459 254.392 606.624 254.298 606.756C254.204 606.887 254.06 606.976 253.9 607C250.597 607.649 247.257 608.1 243.9 608.35H243.7ZM233.7 608.35C230.346 608.149 227.006 607.749 223.7 607.15C223.529 607.127 223.376 607.032 223.28 606.888C223.185 606.745 223.155 606.567 223.2 606.4C223.224 606.24 223.313 606.096 223.444 606.002C223.576 605.908 223.741 605.871 223.9 605.9C227.206 606.5 230.546 606.9 233.9 607.1C234.068 607.099 234.229 607.169 234.343 607.293C234.457 607.417 234.514 607.582 234.5 607.75C234.49 607.943 234.395 608.122 234.241 608.238C234.086 608.354 233.888 608.395 233.7 608.35ZM380 219.05C380.085 219.093 380.179 219.11 380.271 219.101C380.462 219.218 380.706 219.22 380.9 219.1C381.141 218.848 381.141 218.451 380.9 218.2C379.12 216.341 377.122 214.483 375.177 212.673L375.176 212.673C374.662 212.195 374.152 211.72 373.65 211.25C373.399 211.009 373.001 211.009 372.75 211.25C372.637 211.363 372.574 211.515 372.574 211.675C372.574 211.834 372.637 211.987 372.75 212.1C374.236 213.586 375.852 215.115 377.484 216.659L377.485 216.66L377.486 216.661L377.493 216.667L377.498 216.672L377.508 216.682C378.34 217.469 379.176 218.259 380 219.05ZM334.25 179.9H334.6C334.747 179.901 334.89 179.847 335 179.75C335.113 179.637 335.176 179.484 335.176 179.325C335.176 179.165 335.113 179.013 335 178.9L334.998 178.898L334.997 178.898C332.298 176.898 329.599 174.899 326.85 172.95C326.569 172.849 326.255 172.952 326.089 173.201C325.923 173.45 325.948 173.779 326.15 174C328.85 175.9 331.6 177.9 334.25 179.9ZM283.95 147.4H283.65C280.717 145.8 277.767 144.25 274.8 142.75C274.623 142.66 274.497 142.493 274.458 142.298C274.419 142.103 274.471 141.901 274.6 141.75C274.674 141.599 274.808 141.485 274.97 141.438C275.132 141.39 275.306 141.413 275.45 141.5C278.35 142.95 281.35 144.55 284.3 146.15C284.413 146.263 284.476 146.415 284.476 146.575C284.476 146.734 284.413 146.887 284.3 147C284.27 147.174 284.158 147.322 284 147.4H283.95ZM199.6 116.75C203 117.25 206.3 117.9 209.6 118.6C209.916 118.662 210.226 118.464 210.3 118.15C210.362 117.806 210.141 117.475 209.8 117.4C206.35 116.65 203 116.05 199.8 115.5C199.641 115.471 199.476 115.508 199.344 115.602C199.213 115.696 199.124 115.84 199.1 116C199.038 116.344 199.259 116.675 199.6 116.75ZM159.178 115.258C159.293 115.362 159.446 115.414 159.6 115.4H159.55C162.85 115.05 166.2 114.75 169.55 114.75C169.718 114.751 169.879 114.681 169.993 114.557C170.107 114.433 170.164 114.268 170.15 114.1C170.126 113.779 169.871 113.524 169.55 113.5C166.15 113.6 162.8 113.85 159.55 114.2C159.385 114.197 159.228 114.269 159.121 114.395C159.014 114.521 158.97 114.688 159 114.85C158.999 115.005 159.064 115.153 159.178 115.258Z" fill="#D8D5DB"/>
<path d="M469.6 395.6C469.6 396.2 469.6 396.7 469.6 397.25C468.35 411.2 456.35 440.95 444.6 467.25C445 476.75 445.3 485.25 445.35 492.25C445.35 493.55 445.35 494.75 445.35 495.95H443.9C444.25 502.15 444.7 512.9 445.05 525.25C401.8 551.4 348.2 567.25 292.4 580.25L282.85 582.4C274.556 584.284 266.048 585.058 257.55 584.7C257.039 582.608 256.853 580.449 257 578.3C258.182 550.111 261.121 522.023 265.8 494.2L262.7 493.75C274.05 455.45 279.75 400.2 282.7 352.25V352.25C283.05 346.6 283.35 341.1 283.6 335.65C276.35 343.05 271.35 347.65 271.35 347.65L256 322.4C237.05 336.1 219.15 348.2 210.4 353.8C203.15 360.6 190.8 361.6 181.1 348.8C165.4 328.25 143.25 242 140.65 227.35C140.271 227.207 139.916 227.004 139.6 226.75C136 221.75 123.4 194.5 124.6 189.2C125.8 183.9 131.7 172.45 138.55 170.9C137.75 168.45 136.85 165.9 135.55 162.35C132.65 154.45 129.2 146.45 134.4 147.35C139.6 148.25 151.5 177.35 153.55 182.35C153.85 180 154.15 178.1 154.15 178.1C155.75 173.4 164.15 170.9 162.9 178.1C161.45 188.1 164.95 193.1 164.8 201.35C164.8 201.8 164.8 202.3 164.8 203C164.82 203.3 164.82 203.6 164.8 203.9C164.827 204.116 164.827 204.334 164.8 204.55C164.8 204.55 164.8 204.8 164.8 204.9C163.583 211.045 161.424 216.964 158.4 222.45V222.45C163.85 240.25 188.85 286.8 203.4 312.45C212.3 305.05 223.4 296.25 234.9 287.45L233.9 285.8C233.9 285.8 293.2 230.35 323.9 226.15C324.35 224 324.65 221.65 324.95 219.2C325.25 216.75 325.45 212.6 325.55 209.2C303 208.95 300.9 192.35 303.15 171.25L299.6 170.35L304.85 156.75V155.75C304.274 155.079 303.939 154.234 303.9 153.35C303.9 151.7 304.35 150.3 305.25 150.25C305.379 150.2 305.521 150.2 305.65 150.25C305.65 149.05 306.05 147.85 306.2 146.65C306.6 144 307.1 141.65 307.6 139.2C306.263 138.937 304.887 138.937 303.55 139.2L303.15 136.75C304.804 136.455 306.496 136.455 308.15 136.75C309.809 130.046 312.491 123.638 316.1 117.75C308.9 117.25 305.5 114.9 310.5 109.1C318.25 100.1 354.95 95.6 373.45 99.4C379.95 100.75 384.2 103.1 384.25 106.6C384.25 107 384.25 107.25 384.25 107.6V107.6C386.142 106.799 387.771 105.483 388.95 103.8L391.05 105.2C389.843 106.907 388.272 108.325 386.45 109.35L385.7 109.75C405.5 122.65 377.5 191.75 377.4 191.75C376.85 203.6 376.5 215.3 376.55 223.55C394.35 225.6 405.6 230.8 413.05 238.95C433.05 255 463.75 320.85 463.75 320.85L451.2 324.15C460.15 352.85 467.75 381.65 469.95 391.3C470.016 392.742 469.898 394.187 469.6 395.6Z" fill="#D1CDD3"/>
<rect opacity="0.3" x="376.9" y="284.75" width="334.65" height="261.25" rx="33.6" transform="rotate(180 376.9 284.75)" fill="#4D8DFF"/>
<path opacity="0.3" fill-rule="evenodd" clip-rule="evenodd" d="M40 308.4H354.6C365.235 308.4 375.432 304.165 382.937 296.631C390.443 289.097 394.64 278.885 394.6 268.25V40C394.6 17.9086 376.691 0 354.6 0H40C17.9086 0 0 17.9086 0 40V268.4C0 290.491 17.9086 308.4 40 308.4ZM1.1 40C1.12755 18.5275 18.5275 1.12755 40 1.1H354.6C376.072 1.12755 393.472 18.5275 393.5 40V268.25C393.472 289.722 376.072 307.122 354.6 307.15H40C18.5275 307.122 1.12755 289.722 1.1 268.25V40Z" fill="#4D8DFF"/>
<g opacity="0.3">
<rect x="125.9" y="100.9" width="55.9" height="43.65" rx="5.6" transform="rotate(180 125.9 100.9)" fill="#4D8DFF"/>
<rect x="200.3" y="100.9" width="55.9" height="43.65" rx="5.6" transform="rotate(180 200.3 100.9)" fill="#4D8DFF"/>
<rect x="274.75" y="100.9" width="55.9" height="43.65" rx="5.6" transform="rotate(180 274.75 100.9)" fill="#4D8DFF"/>
<rect x="349.2" y="100.9" width="55.9" height="43.65" rx="5.6" transform="rotate(180 349.2 100.9)" fill="#4D8DFF"/>
</g>
<g opacity="0.3">
<rect x="125.9" y="175.95" width="55.9" height="43.65" rx="5.6" transform="rotate(180 125.9 175.95)" fill="#4D8DFF"/>
<rect x="200.3" y="175.95" width="55.9" height="43.65" rx="5.6" transform="rotate(180 200.3 175.95)" fill="#4D8DFF"/>
<rect x="274.75" y="175.95" width="55.9" height="43.65" rx="5.6" transform="rotate(180 274.75 175.95)" fill="#4D8DFF"/>
<rect x="349.2" y="175.95" width="55.9" height="43.65" rx="5.6" transform="rotate(180 349.2 175.95)" fill="#4D8DFF"/>
</g>
<g opacity="0.3">
<rect x="125.9" y="250.95" width="55.9" height="43.65" rx="5.6" transform="rotate(180 125.9 250.95)" fill="#4D8DFF"/>
<rect x="200.3" y="250.95" width="55.9" height="43.65" rx="5.6" transform="rotate(180 200.3 250.95)" fill="#4D8DFF"/>
<rect x="274.75" y="250.95" width="55.9" height="43.65" rx="5.6" transform="rotate(180 274.75 250.95)" fill="#4D8DFF"/>
<rect x="349.2" y="250.95" width="55.9" height="43.65" rx="5.6" transform="rotate(180 349.2 250.95)" fill="#4D8DFF"/>
</g>
<rect x="281.85" y="93.8" width="55.9" height="43.65" rx="5.6" transform="rotate(180 281.85 93.8)" fill="#4D8DFF"/>
<rect x="281.85" y="243.85" width="55.9" height="43.65" rx="5.6" transform="rotate(180 281.85 243.85)" fill="#FF4E4A"/>
<rect x="132.95" y="168.85" width="55.9" height="43.65" rx="5.6" transform="rotate(180 132.95 168.85)" fill="#FFC84D"/>
<path d="M415.95 148.6C414.25 159.5 410.95 218.6 412.3 232.1C413.65 245.6 347.3 249.7 356.15 234.65C365 219.6 358.7 169.65 358.7 169.65L415.95 148.6Z" fill="#FFAD69"/>
<path d="M411.35 150.3L358.7 169.55C360.672 186.023 361.14 202.642 360.1 219.2C381.8 210.25 377 192.05 377 182.25C377 173.35 411.4 152 411.35 150.3Z" fill="#D88344"/>
<path d="M341.95 152.55L333.75 170.05L343.75 174.1L341.95 152.55V152.55Z" fill="#D88344"/>
<path d="M341.8 146.75C336.8 180.4 328.6 213.95 369.4 208.4C410.2 202.85 416.5 150.65 416.4 140.75C415.75 88.15 351.4 80.65 341.8 146.75Z" fill="#FFAD69"/>
<path d="M421.35 109.95C423.457 108.861 425.287 107.305 426.7 105.4L424.6 104C423.324 105.712 421.591 107.029 419.6 107.8C419.627 107.451 419.627 107.1 419.6 106.75C419.6 93.15 356.3 97.05 345.85 109.2C339.65 116.4 346.25 118.3 356.95 117.95C356.156 118.562 355.563 119.398 355.25 120.35C348.2 154.9 381.5 188.9 385.25 191.8H412.45C412.45 191.8 440.95 122.65 421.35 109.95Z" fill="#232323"/>
<path d="M505.35 391.35C501.75 375.3 483 305.85 468.1 272.55L430.05 280.65C430.05 280.65 454.6 362.75 467.65 393.4C464.6 409.9 449.2 486.65 439.7 508.1C435.5 518.1 451.4 521.95 455.25 517.15C459.1 512.35 502.8 424.55 505.25 397.15C505.25 396.55 505.25 396.05 505.25 395.5C505.5 394.13 505.533 392.73 505.35 391.35V391.35Z" fill="#FFAD69"/>
<path d="M448.2 238.7C468.2 254.35 499.15 320.9 499.15 320.9L433.65 337.9C433.65 337.9 395.55 197.5 448.2 238.7Z" fill="#E5AA33"/>
<path d="M479.6 500.2C468.924 509.614 457.371 517.986 445.1 525.2C401.85 551.35 348.25 567.2 292.45 580.2C292.4 579.551 292.4 578.899 292.45 578.25C294.25 547.3 297.45 511.95 302.45 489.5L445.5 492.35L479.3 493.05C479.3 494.75 479.6 497.15 479.6 500.2Z" fill="#232323"/>
<path d="M400.3 222.75C439.55 224.05 452.85 237.3 459.6 260.25C467.3 286.25 480.85 443.5 480.85 496C480.85 496 363.3 504.35 298.2 493.65C318.6 424.7 320.8 300.75 321.25 263.65C321.55 236.1 350.5 221.1 400.3 222.75Z" fill="#FFC84D"/>
<path fill-rule="evenodd" clip-rule="evenodd" d="M405.15 249.75C405.853 250.701 406.968 251.258 408.15 251.25L408.75 251.05C410.092 250.88 411.238 250.001 411.75 248.75L417.45 234.55C417.83 233.409 417.648 232.155 416.958 231.169C416.268 230.184 415.152 229.583 413.95 229.55H397.6C396.18 229.55 394.881 230.352 394.246 231.623C393.611 232.893 393.748 234.414 394.6 235.55L405.15 249.75ZM396.35 232.75C396.564 232.313 397.013 232.039 397.5 232.05H413.8C414.22 232.045 414.615 232.252 414.85 232.6C415.075 232.968 415.075 233.432 414.85 233.8L409.15 247.95C408.999 248.387 408.61 248.698 408.15 248.75C407.705 248.802 407.266 248.611 407 248.25L396.35 234.05C396.095 233.654 396.095 233.146 396.35 232.75Z" fill="white"/>
<path d="M321.1 272.8C320.8 290.95 320.1 319.9 318.15 352.25C334.8 332.25 351.15 308.6 352.1 290.85C353.45 266.45 339.6 264.95 321.1 272.8Z" fill="#E5AA33"/>
<path d="M343.25 281.25L323.25 248C323.25 248 268.25 287.65 238.7 312.2C224.1 286.5 199.15 239.95 193.7 222.2V222.2C196.714 216.733 198.857 210.828 200.05 204.7C200.08 204.585 200.08 204.465 200.05 204.35C200.05 204.35 200.05 203.9 200.05 203.7C200.072 203.4 200.072 203.1 200.05 202.8C200.05 202.1 200.05 201.55 200.05 201.1C200.05 193.05 196.7 188.1 198.15 177.9C199.15 170.75 191 173.2 189.4 177.9L188.75 182.1C186.7 177.1 174.35 147.75 169.65 147.1C164.95 146.45 167.9 154.35 170.8 162.1C172.05 165.55 173 168.25 173.8 170.65C166.9 172.25 160.8 184.05 159.85 189C158.9 193.95 171.4 221.55 174.85 226.55C175.117 226.884 175.438 227.171 175.8 227.4C178.35 242.1 200.8 328.3 216.2 348.9C225.9 361.65 238.3 360.65 245.55 353.9C263.35 342.55 318.05 304.95 343.25 281.25Z" fill="#FFAD69"/>
<path d="M377 248C375 284.7 307 347.65 307 347.65L269.1 285.65C269.1 285.65 380.7 181.25 377 248Z" fill="#FFC84D"/>
<path d="M356 157.15C354.5 165.95 352.3 174.7 360.55 174.05C368.8 173.4 370.9 159.7 371.05 157.1C371.75 143.1 358.95 139.75 356 157.15Z" fill="#FFAD69"/>
</svg>
